PathFileType	4	(X/Y/Z)	 s03c0402.trc
DataRate	CameraRate	NumFrames	NumMarkers	Units	OrigDataRate	OrigDataStartFrame	OrigNumFrames
200	200	5	50	mm	200	1501	2000
Frame#	Time	racr			lacr			c7			jug			rlel			rdr			llel			ldr			s2			lic			ric			lasi			rasi			rpsi			lpsi			rgt			lgt			rth1			rth2			rth3			rth4			rlfc			rmfc			rsh1			rsh2			rsh3			rsh4			rlmal			rcal			rtoe			rmt5			rmt1			lth1			lth2			lth4			lth3			llfc			lmfc			lsh1			lsh2			lsh3			lsh4			llmal			lcal			ltoe			lmt1			lmt5			SBIKE			LBIKE			RBIKE			
		X1	Y1	Z1	X2	Y2	Z2	X3	Y3	Z3	X4	Y4	Z4	X5	Y5	Z5	X6	Y6	Z6	X7	Y7	Z7	X8	Y8	Z8	X9	Y9	Z9	X10	Y10	Z10	X11	Y11	Z11	X12	Y12	Z12	X13	Y13	Z13	X14	Y14	Z14	X15	Y15	Z15	X16	Y16	Z16	X17	Y17	Z17	X18	Y18	Z18	X19	Y19	Z19	X20	Y20	Z20	X21	Y21	Z21	X22	Y22	Z22	X23	Y23	Z23	X24	Y24	Z24	X25	Y25	Z25	X26	Y26	Z26	X27	Y27	Z27	X28	Y28	Z28	X29	Y29	Z29	X30	Y30	Z30	X31	Y31	Z31	X32	Y32	Z32	X33	Y33	Z33	X34	Y34	Z34	X35	Y35	Z35	X36	Y36	Z36	X37	Y37	Z37	X38	Y38	Z38	X39	Y39	Z39	X40	Y40	Z40	X41	Y41	Z41	X42	Y42	Z42	X43	Y43	Z43	X44	Y44	Z44	X45	Y45	Z45	X46	Y46	Z46	X47	Y47	Z47	X48	Y48	Z48	X49	Y49	Z49	X50	Y50	Z50	
1501	7.5050	799.951784	1397.367359	-89.685772	804.295388	1388.271295	-417.579704	765.442504	1485.898819	-260.555394	730.870499	1307.426582	-250.876538	624.864674	1214.041916	72.639074	742.158865	982.266048	-11.673639	638.541989	1209.219103	-580.938908	732.631619	978.703027	-457.696416	189.567636	1317.941516	-227.376169	353.546383	1300.480059	-422.470615	369.528850	1324.061321	-52.398902	360.359028	1228.341429	-372.381642	379.789337	1245.335809	-92.618207	230.672500	1364.556529	-186.829233	227.169391	1361.367157	-272.420319	301.033845	1232.014407	-28.506645	281.466143	1197.964184	-422.286975	377.726593	1089.069091	-6.048373	445.118951	1031.389234	-6.198948	476.387947	951.898804	-2.285788	472.313111	1050.976431	-19.186315	516.964104	828.163502	-15.704519	516.668720	803.947664	-135.837497	380.670924	725.618865	0.902342	322.926849	660.041624	-19.168806	239.679359	632.060490	-25.348663	342.831443	638.210243	-42.503923	126.357106	569.065806	-55.677574	63.711015	594.717618	-98.582276	208.860563	320.663647	-115.096067	136.162062	411.836504	-41.053024	164.355898	404.969080	-154.957147	342.772300	1048.664641	-440.023284	396.057723	980.195516	-439.571503	429.317684	994.841825	-434.974206	408.437363	892.279167	-428.969407	475.215187	778.966878	-407.289694	478.068550	764.375352	-289.177567	401.576330	621.638364	-438.385035	394.046105	537.900494	-422.954917	343.806030	463.140274	-422.898851	424.495146	528.424519	-399.763815	293.015773	346.968705	-412.192982	218.157907	314.329935	-370.874322	519.388716	241.274408	-351.785180	424.168895	260.725396	-313.528917	402.311225	244.068134	-432.051578	-215.981733	946.170320	-233.879360	-7.924937	84.022021	-436.991979	-13.711248	81.253658	-36.709681	
1502	7.5100	798.959268	1399.173576	-87.655338	805.021348	1388.633533	-416.009527	764.771152	1487.062713	-259.710959	731.051313	1308.462713	-249.436631	624.356964	1213.708579	73.113492	742.227385	982.154507	-11.244811	638.957242	1209.575099	-579.655943	732.551487	978.729272	-456.894277	190.309862	1315.845692	-227.973833	353.948717	1297.518363	-422.043860	369.450675	1323.833441	-53.442784	361.213215	1226.398432	-372.943389	380.111425	1245.139484	-93.414660	230.684616	1362.905308	-187.763866	227.553895	1358.880805	-273.094639	302.867632	1232.141241	-28.912454	280.992466	1194.326431	-422.700583	381.080956	1091.232440	-5.956988	449.643422	1034.864306	-6.005999	482.566947	956.027384	-1.946957	476.599040	1054.691033	-20.473613	525.363830	833.275203	-15.280124	524.323442	808.256648	-135.147445	388.237943	731.479249	0.998518	329.698109	666.650864	-19.276078	246.151008	639.679546	-25.323398	349.370788	644.870545	-42.705327	131.867507	578.336846	-55.609741	68.767069	603.846268	-98.533944	214.737620	330.248770	-115.285675	141.984586	421.204323	-41.189575	168.493060	413.794607	-155.942251	339.053050	1043.583146	-439.568673	390.658990	973.835922	-439.061212	424.302811	987.726871	-435.054907	401.114171	885.719889	-427.631648	465.792983	772.011214	-406.194660	469.147899	757.493262	-288.017852	393.649883	614.549524	-437.892331	387.134769	530.808970	-422.627771	337.868656	455.324832	-422.480052	417.846531	521.563769	-399.652772	288.340273	338.801015	-411.952885	213.868658	307.070040	-370.887479	514.289394	230.423213	-351.681810	419.277961	251.011343	-313.370217	397.268278	234.309875	-431.513975	-215.987771	946.144381	-233.880752	-7.917648	83.988425	-436.980195	-13.714522	81.223060	-36.710538	
1503	7.5150	797.914586	1400.887232	-85.751577	805.453511	1388.849874	-413.815376	764.074047	1488.217073	-258.757823	730.893543	1309.549037	-247.957443	623.731269	1213.438222	73.819220	742.278230	981.999838	-10.578298	639.347802	1209.952046	-578.397529	732.396598	978.650513	-456.160838	190.341769	1313.929855	-229.141392	354.637542	1294.969434	-422.487807	369.010323	1323.479934	-54.310672	362.145368	1224.339347	-373.360390	380.450623	1244.774370	-94.280375	230.425377	1361.328364	-188.679328	227.824702	1356.263392	-274.101201	304.499805	1232.178553	-29.436483	280.464262	1190.813298	-422.605936	384.295244	1093.329429	-5.973941	454.139891	1038.449639	-5.966189	488.899833	960.263242	-2.210967	480.637716	1058.738777	-20.910832	533.556200	838.511270	-14.945105	530.967848	810.741590	-129.500484	395.743868	737.376256	1.062520	337.500823	673.909460	-18.643015	252.701016	647.330183	-25.541566	355.826768	651.342101	-42.964261	137.539507	587.360053	-55.642720	74.204958	612.539132	-98.679680	221.159500	339.536033	-115.516095	148.244635	430.331672	-41.293205	174.460778	422.850896	-156.179129	335.223124	1038.448454	-439.135636	385.102659	967.633257	-439.239199	419.188546	980.664100	-435.149262	393.662546	879.474382	-426.576846	456.652274	765.098983	-404.455949	460.099221	750.848495	-287.301678	385.653905	607.862384	-437.373211	380.046087	524.075839	-422.212371	331.630096	448.097646	-422.129443	411.043903	515.128046	-399.536150	283.192905	331.299151	-411.727000	209.160834	300.381096	-370.898013	508.538738	219.805838	-351.732510	413.723039	241.705340	-313.205055	391.680004	225.214863	-431.475571	-215.983941	946.125836	-233.910369	-7.929360	83.965830	-436.988086	-13.740382	81.207329	-36.688958	
1504	7.5200	796.815629	1402.679620	-83.928642	806.054438	1389.316398	-412.265619	763.363289	1489.391267	-257.734694	730.934080	1310.614866	-246.486451	623.094732	1213.147096	74.598890	742.321305	981.822589	-9.608049	639.802262	1210.320910	-577.013626	732.163343	978.529663	-455.402602	190.389327	1311.965721	-229.658684	355.423423	1292.539666	-422.872068	368.429190	1323.085422	-55.139531	363.338644	1222.300604	-373.779973	380.696159	1244.396136	-94.850435	229.472784	1360.069353	-189.651943	228.080628	1353.738163	-275.124597	306.089443	1232.241044	-29.956430	280.045353	1187.286691	-422.543152	387.484338	1095.430702	-6.030499	458.575019	1042.261985	-6.066695	495.127402	964.868151	-2.093520	484.521616	1062.899857	-21.552905	541.536125	843.787633	-14.689140	539.078253	817.340930	-131.281171	403.051844	743.277225	0.922999	344.224987	680.462667	-18.925961	259.153956	654.828915	-25.908822	362.259150	657.844070	-43.391057	143.346458	595.983903	-55.800875	79.249330	620.630972	-98.800548	228.466768	348.917136	-115.607323	155.028032	439.139573	-41.365285	180.471296	432.396714	-155.873657	331.358776	1033.455365	-438.658226	379.538225	961.462410	-438.779420	414.070158	973.822135	-435.316407	386.351543	873.307279	-425.184459	447.252027	758.744265	-403.396492	450.490849	744.780941	-286.402575	377.780070	601.636524	-436.861832	372.953154	517.793058	-421.850047	325.265966	441.305036	-421.943775	404.079532	509.038823	-399.268881	277.675144	324.226724	-411.486476	204.076785	294.345503	-370.952731	502.268595	209.467069	-351.740844	407.822370	232.841049	-313.138650	385.473139	216.430030	-431.430257	-215.993285	946.102478	-233.904692	-7.942526	83.934589	-436.971457	-13.752113	81.204732	-36.697684	
1505	7.5250	795.683777	1404.495242	-82.038090	806.602065	1389.724522	-410.650377	762.674803	1490.472384	-256.492707	730.933895	1311.606439	-244.745836	622.351051	1212.819898	75.453882	742.321392	981.626506	-8.370673	640.294459	1210.720648	-575.724458	731.922454	978.352441	-454.681660	190.262074	1309.215028	-229.867000	356.452966	1290.243867	-423.272780	367.789368	1322.666015	-55.791362	364.710373	1220.327565	-374.167142	380.906161	1243.892639	-95.389940	228.060287	1358.951930	-190.788150	227.982639	1351.804197	-275.452317	307.417686	1232.292730	-30.565631	279.694152	1183.766932	-422.545162	390.575957	1097.602840	-6.380441	462.967748	1045.998878	-6.297100	501.237467	969.447436	-2.066936	488.279164	1067.145993	-22.386804	549.276599	848.992269	-14.542676	549.080016	824.252640	-138.487955	410.273543	749.264199	0.671741	350.942133	687.083585	-19.214604	265.451504	662.309055	-26.163827	368.576368	664.200299	-43.861302	149.419113	604.183951	-56.041833	84.752899	628.360267	-98.927519	236.112799	357.697857	-115.882344	162.307715	447.666922	-41.471239	187.735617	440.952817	-155.887734	327.417189	1028.756619	-438.183633	374.037262	955.749895	-438.447115	408.844516	967.304029	-435.432244	379.049553	867.537265	-423.945676	437.916658	752.952181	-402.424487	440.984675	738.911561	-285.721389	370.123691	596.269606	-437.189051	365.841875	511.964660	-421.623193	318.720952	435.123865	-421.853465	396.993276	503.399503	-398.914559	271.889075	317.701838	-411.298811	198.607158	288.897458	-371.020224	495.494049	199.565794	-351.592301	401.383068	224.540640	-313.216337	378.710713	208.476647	-432.007662	-216.052306	946.073011	-233.871411	-7.955224	83.877492	-436.994128	-13.752859	81.145608	-36.665041	
